<svg version="1.1" id="Layer_1" xmlns="http://www.w3.org/2000/svg" xmlns:xlink="http://www.w3.org/1999/xlink" x="0px" y="0px" width="100%" viewBox="0 0 907 605" enable-background="new 0 0 907 605" xml:space="preserve">
<path fill="#ffffff" opacity="1.000000" stroke="none" d=" M653.000000,606.000000   C435.333344,606.000000 218.166672,606.000000 1.000000,606.000000   C1.000000,404.333344 1.000000,202.666672 1.000000,1.000000   C303.333344,1.000000 605.666687,1.000000 908.000000,1.000000   C908.000000,202.666672 908.000000,404.333344 908.000000,606.000000   C823.166687,606.000000 738.333313,606.000000 653.000000,606.000000  M392.306854,464.116760   C390.556946,468.093323 388.807007,472.069855 387.039001,476.875580   C386.360779,479.718811 385.223999,482.541626 385.096252,485.409363   C384.796265,492.143890 385.014435,498.900208 384.957275,505.647156   C384.879608,514.809753 388.596558,522.870239 392.876099,530.527100   C398.261536,540.162720 406.595093,547.022766 415.614105,553.359863   C422.929901,558.500183 431.080719,560.893738 439.401154,561.783936   C453.934875,563.338867 468.673645,562.613831 481.141541,553.811218   C488.960510,548.290833 497.085480,542.178406 502.492950,534.511780   C510.326599,523.405334 514.470154,510.331299 513.088806,496.143066   C512.638794,491.520660 514.071045,486.395203 512.565186,482.255371   C508.050476,469.843750 501.742188,458.284698 491.945801,448.268005   C487.494293,441.373230 480.383118,438.955322 472.344391,436.985687   C471.912445,436.969086 471.480469,436.952484 470.933167,436.299133   C469.622467,435.864502 468.311737,435.429871 466.350006,434.969116   C465.915802,434.958130 465.481567,434.947113 464.893158,434.244965   C462.596161,433.819550 460.299133,433.394104 457.066650,432.973999   C451.709869,432.968170 446.353058,432.962372 440.455688,432.407990   C438.673340,432.426392 436.805145,432.099274 435.122192,432.517578   C420.834076,436.068665 408.507019,443.143799 398.632721,454.064178   C396.140717,456.820221 394.858612,460.670288 393.000000,464.000000   C393.000000,464.000000 393.018494,464.019257 392.306854,464.116760  M356.618042,432.964935   C362.427979,431.126404 363.499878,426.297180 364.475220,421.121521   C367.285004,406.212097 358.705414,394.217224 342.676208,395.145081   C341.361603,395.221161 340.091980,396.074249 337.897400,396.663605   C295.663910,396.632111 253.430405,396.600616 210.815659,395.909485   C203.813629,396.173096 196.554291,395.371399 189.878082,396.983978   C182.402954,398.789490 178.244171,407.405182 179.938202,414.794128   C179.932526,415.865906 179.926849,416.937714 179.400711,418.556030   C178.496826,427.981781 186.268219,436.920837 195.648865,436.938477   C233.557617,437.009796 271.466553,436.995148 309.375397,437.001953   C322.177826,437.004242 334.988159,437.209106 347.776367,436.775574   C350.503876,436.683105 353.151001,434.219604 355.934448,432.981567   C355.934448,432.981567 355.865265,432.830597 356.618042,432.964935  M451.759735,416.971497   C519.915649,416.936768 588.071594,416.902588 656.227478,416.866455   C663.981812,416.862366 671.745728,417.072876 679.486755,416.746826   C683.675110,416.570374 687.824524,415.469360 692.867859,414.816772   C694.913513,414.803986 696.959167,414.791199 699.438782,415.358093   C700.956421,415.164673 702.474121,414.971283 704.927673,414.812958   C710.887512,414.785522 716.847351,414.758087 723.752869,414.969086   C752.403809,414.951202 781.057312,415.109070 809.702515,414.694275   C813.305786,414.642120 818.133423,412.491730 820.155762,409.695190   C823.393616,405.217682 825.213745,399.518890 826.802795,394.093170   C828.951599,386.756439 830.442383,379.215668 831.973083,371.713013   C833.112061,366.130188 833.866211,360.468842 834.833679,354.224945   C834.870239,353.814117 834.906799,353.403259 835.668457,352.851929   C836.096008,352.207947 836.738892,351.618774 836.918945,350.911743   C839.626831,340.276733 842.269287,329.625092 844.938171,318.980133   C845.576904,316.432739 846.337708,313.913422 846.900635,311.350098   C848.620117,303.520813 850.143799,295.646545 851.980835,287.845642   C854.163696,278.575928 856.617310,269.370270 858.908447,260.125671   C861.199463,250.881973 863.505554,241.640823 865.647461,232.362167   C866.224609,229.861877 866.228821,227.229340 866.598938,224.098618   C866.604065,223.719727 866.609192,223.340851 867.296814,222.633209   C867.832092,221.441742 868.573242,220.298935 868.868164,219.050659   C870.419800,212.482605 871.807800,205.876007 873.348389,199.305267   C875.857361,188.603714 878.508179,177.934998 880.953308,167.219162   C881.739563,163.773422 882.066040,160.222763 882.669495,156.143585   C882.677673,155.756699 882.685852,155.369797 883.358276,154.495865   C883.123352,151.340103 882.888367,148.184341 882.623352,144.457001   C882.583740,144.078217 882.544128,143.699448 882.739136,142.581635   C881.991211,140.786453 881.531677,138.783737 880.425415,137.246490   C878.904358,135.132828 877.226135,132.634079 873.440308,134.049591   C873.440308,134.049591 873.000916,133.990570 872.891296,133.185776   C871.972351,132.492889 871.111450,131.319534 870.123169,131.200119   C867.490723,130.882004 864.803528,130.978546 862.138062,130.978394   C725.503601,130.970413 588.869080,130.993774 452.234650,130.931381   C438.198395,130.924973 441.348053,133.469406 438.828003,118.347343   C437.957367,113.122887 436.460052,108.002861 435.194000,102.029449   C435.171539,100.683022 435.149048,99.336586 435.633942,97.376259   C435.386078,92.758804 435.357056,88.116928 434.845184,83.528931   C433.745239,73.670105 432.305145,63.849327 431.193604,53.991627   C430.738037,49.951374 428.734070,48.937176 424.861237,48.952869   C391.713501,49.087173 358.564301,49.148209 325.417084,48.958538   C313.919189,48.892746 306.358856,54.024586 301.901581,64.379944   C297.116486,75.496902 299.517059,88.263718 308.172241,95.429306   C314.698975,100.832764 322.552490,102.785744 330.869781,102.831177   C346.693878,102.917625 362.519440,102.793259 378.342255,102.960182   C379.909271,102.976715 382.680115,104.214027 382.833008,105.203026   C384.467468,115.776863 386.131622,126.382767 386.901672,137.043854   C387.774384,149.126678 387.714325,161.275803 388.151550,173.392792   C388.195190,174.602875 388.874634,175.790024 389.214294,177.924637   C389.230621,251.883881 389.246948,325.843109 389.058685,400.707214   C388.973114,410.573547 395.377441,417.349243 405.109039,416.781128   C420.344238,416.767334 435.579437,416.753571 451.759735,416.971497  M596.600037,551.973572   C598.635315,553.295837 600.561035,554.840942 602.724060,555.903137   C614.377808,561.625732 626.892151,563.224792 639.553528,561.843201   C646.842651,561.047791 654.759705,559.730286 660.916748,556.124878   C674.337708,548.265991 686.504272,538.498413 692.078674,522.948669   C693.764648,518.245605 696.311035,513.601074 696.794312,508.763092   C698.317932,493.509888 696.414246,478.852448 688.669861,465.032867   C681.235535,451.766663 670.011475,443.260040 656.706116,437.216278   C645.884583,432.300751 634.132874,432.258545 622.506897,433.099457   C618.659302,433.377716 614.738159,434.541443 611.150513,436.025208   C606.777039,437.834015 602.667236,440.315613 598.541260,442.677032   C594.862854,444.782257 590.660522,446.504761 587.861145,449.493622   C583.177307,454.494629 578.258118,459.856720 575.562317,465.999207   C571.712463,474.771393 568.468323,484.242218 567.443909,493.683594   C566.637329,501.117493 569.100342,509.075287 570.956360,516.591614   C574.196838,529.714294 581.088562,540.602783 592.529968,548.302795   C593.832031,549.179138 594.771729,550.593933 596.600037,551.973572  M139.500000,311.151825   C208.313828,311.133484 277.127686,311.078003 345.941467,311.142914   C354.693268,311.151184 359.193298,305.471832 362.065704,298.784241   C364.421204,293.300110 364.346924,287.007996 360.631622,281.583130   C356.420837,275.434723 350.634857,272.740051 343.058197,272.747772   C244.752808,272.847595 146.447281,272.793427 48.141800,272.828766   C34.367657,272.833740 27.863495,279.526672 27.913675,293.234650   C27.952108,303.733887 35.113811,311.073669 45.526436,311.091736   C76.517563,311.145508 107.508804,311.136536 139.500000,311.151825  M184.326019,159.823700   C179.826035,164.389221 179.994537,170.153793 179.911057,175.984421   C179.799591,183.768982 187.095413,193.264603 197.251266,193.200150   C247.206848,192.883057 297.166321,193.166885 347.121490,192.821304   C351.073761,192.793976 355.824860,190.454102 358.775391,187.672714   C365.112244,181.699142 365.094604,173.557617 362.743622,165.826828   C359.842957,156.288513 351.698151,153.422546 342.899994,153.384033   C295.441254,153.176285 247.979309,153.110962 200.523956,153.567657   C195.275574,153.618179 190.062149,157.299194 184.326019,159.823700  z"/>
<path fill="#2677ff" opacity="1.000000" stroke="none" d=" M834.943359,352.992432   C834.906799,353.403259 834.870239,353.814117 834.482422,354.669067   C833.569946,355.918152 832.700439,356.651276 832.493469,357.538910   C829.294800,371.259918 826.008362,384.964661 823.120789,398.752441   C821.609192,405.969940 815.633606,411.894073 808.456177,412.113220   C797.157227,412.458191 785.856812,412.839142 774.554321,412.962219   C759.062073,413.130920 743.566772,413.021362 728.074402,413.182159   C726.313477,413.200409 724.562683,414.190918 722.807190,414.730652   C716.847351,414.758087 710.887512,414.785522 704.209473,414.569855   C701.995850,414.477325 700.500305,414.627899 699.004822,414.778442   C696.959167,414.791199 694.913513,414.803986 692.103760,414.554504   C689.516907,414.210999 687.693848,414.050720 685.871643,414.059906   C623.607605,414.374084 561.343750,414.711395 499.079681,415.027008   C484.756470,415.099640 470.432312,415.051178 456.110321,415.212616   C454.339600,415.232544 452.579590,416.207428 450.814636,416.739807   C435.579437,416.753571 420.344238,416.767334 404.532166,416.446594   C403.464722,415.691742 403.034943,415.149445 402.474182,414.870056   C397.007172,412.146271 392.166992,408.977753 391.600159,402.023132   C391.535095,401.224701 390.075989,400.539886 389.263245,399.802368   C389.246948,325.843109 389.230621,251.883881 389.485413,177.131958   C389.477173,161.726349 389.498291,147.099182 388.806976,132.505753   C388.385223,123.603577 386.712463,114.767471 385.898712,105.874504   C385.406128,100.491676 384.402069,99.194046 378.987000,99.184311   C361.329041,99.152573 343.670685,99.084991 326.013214,99.174698   C317.672821,99.217064 311.662231,95.436325 306.645325,89.015594   C297.130066,76.837852 303.798157,61.583290 313.342682,54.570766   C318.166534,51.026592 323.141968,51.723530 328.472778,51.732342   C346.104523,51.761494 363.736420,51.192295 381.369476,51.108616   C395.835999,51.039959 410.306061,51.258728 424.768921,51.592041   C426.195984,51.624928 428.653381,53.194248 428.816284,54.314571   C429.852905,61.443012 430.355377,68.648071 431.081146,75.823112   C431.739471,82.331627 432.390198,88.842773 433.224518,95.329582   C433.347076,96.282227 434.467712,97.106499 435.126556,97.990158   C435.149048,99.336586 435.171539,100.683022 435.121033,102.901985   C435.742615,112.621269 436.356476,121.476151 437.246094,130.303238   C437.344025,131.274734 438.889923,132.536926 440.000061,132.864029   C441.538422,133.317307 443.300232,133.029251 444.966370,133.029236   C579.614563,133.028244 714.262695,133.007812 848.910889,133.062302   C856.941040,133.065552 864.970886,133.667313 873.000916,133.990570   C873.000916,133.990570 873.440308,134.049591 873.697693,134.472473   C876.804871,137.703796 879.654724,140.512222 882.504517,143.320663   C882.544128,143.699448 882.583740,144.078217 882.440979,145.072540   C882.403748,148.786362 882.548889,151.884644 882.694031,154.982910   C882.685852,155.369797 882.677673,155.756699 882.284546,156.541962   C881.341309,157.485031 880.433289,157.946381 880.280518,158.587662   C879.137695,163.385284 878.246094,168.243164 877.083618,173.035553   C874.327820,184.397125 871.283020,195.692017 868.728760,207.097549   C867.567322,212.283432 867.291748,217.667679 866.614319,222.961960   C866.609192,223.340851 866.604065,223.719727 866.201660,224.474731   C865.313049,225.251251 864.505371,225.569809 864.377502,226.064255   C862.279053,234.172165 860.168762,242.279373 858.256897,250.432648   C855.196045,263.485565 852.397217,276.600525 849.272827,289.637787   C845.150879,306.838135 840.749695,323.971619 836.636414,341.173950   C835.714905,345.028076 835.489319,349.048553 834.943359,352.992432  z"/>
<path fill="#2677ff" opacity="1.000000" stroke="none" d=" M596.239746,551.866333   C594.771729,550.593933 593.832031,549.179138 592.529968,548.302795   C581.088562,540.602783 574.196838,529.714294 570.956360,516.591614   C569.100342,509.075287 566.637329,501.117493 567.443909,493.683594   C568.468323,484.242218 571.712463,474.771393 575.562317,465.999207   C578.258118,459.856720 583.177307,454.494629 587.861145,449.493622   C590.660522,446.504761 594.862854,444.782257 598.541260,442.677032   C602.667236,440.315613 606.777039,437.834015 611.150513,436.025208   C614.738159,434.541443 618.659302,433.377716 622.506897,433.099457   C634.132874,432.258545 645.884583,432.300751 656.706116,437.216278   C670.011475,443.260040 681.235535,451.766663 688.669861,465.032867   C696.414246,478.852448 698.317932,493.509888 696.794312,508.763092   C696.311035,513.601074 693.764648,518.245605 692.078674,522.948669   C686.504272,538.498413 674.337708,548.265991 660.916748,556.124878   C654.759705,559.730286 646.842651,561.047791 639.553528,561.843201   C626.892151,563.224792 614.377808,561.625732 602.724060,555.903137   C600.561035,554.840942 598.635315,553.295837 596.239746,551.866333  z"/>
<path fill="#2677ff" opacity="1.000000" stroke="none" d=" M440.996277,432.956543   C446.353058,432.962372 451.709869,432.968170 457.712708,433.307983   C460.588318,434.073364 462.817841,434.504730 465.047363,434.936127   C465.481567,434.947113 465.915802,434.958130 466.739197,435.343079   C468.435089,436.123322 469.741791,436.529602 471.048523,436.935913   C471.480469,436.952484 471.912445,436.969086 472.721191,437.340759   C476.944458,440.107391 480.758911,442.572144 484.649109,444.910950   C487.053223,446.356293 489.572601,447.609924 492.040222,448.949615   C501.742188,458.284698 508.050476,469.843750 512.565186,482.255371   C514.071045,486.395203 512.638794,491.520660 513.088806,496.143066   C514.470154,510.331299 510.326599,523.405334 502.492950,534.511780   C497.085480,542.178406 488.960510,548.290833 481.141541,553.811218   C468.673645,562.613831 453.934875,563.338867 439.401154,561.783936   C431.080719,560.893738 422.929901,558.500183 415.614105,553.359863   C406.595093,547.022766 398.261536,540.162720 392.876099,530.527100   C388.596558,522.870239 384.879608,514.809753 384.957275,505.647156   C385.014435,498.900208 384.796265,492.143890 385.096252,485.409363   C385.223999,482.541626 386.360779,479.718811 387.389252,476.390167   C389.499146,471.942932 391.258789,467.981079 393.018494,464.019226   C393.018494,464.019257 393.000000,464.000000 393.355652,463.970337   C394.527039,463.181396 395.487183,462.528473 396.136810,461.646759   C405.412964,449.057617 416.973938,439.816986 432.552307,436.195435   C435.460754,435.519287 438.186310,434.056366 440.996277,432.956543  z"/>
<path fill="#2677ff" opacity="1.000000" stroke="none" d=" M139.000000,311.151947   C107.508804,311.136536 76.517563,311.145508 45.526436,311.091736   C35.113811,311.073669 27.952108,303.733887 27.913675,293.234650   C27.863495,279.526672 34.367657,272.833740 48.141800,272.828766   C146.447281,272.793427 244.752808,272.847595 343.058197,272.747772   C350.634857,272.740051 356.420837,275.434723 360.631622,281.583130   C364.346924,287.007996 364.421204,293.300110 362.065704,298.784241   C359.193298,305.471832 354.693268,311.151184 345.941467,311.142914   C277.127686,311.078003 208.313828,311.133484 139.000000,311.151947  z"/>
<path fill="#2677ff" opacity="1.000000" stroke="none" d=" M184.579254,159.560074   C190.062149,157.299194 195.275574,153.618179 200.523956,153.567657   C247.979309,153.110962 295.441254,153.176285 342.899994,153.384033   C351.698151,153.422546 359.842957,156.288513 362.743622,165.826828   C365.094604,173.557617 365.112244,181.699142 358.775391,187.672714   C355.824860,190.454102 351.073761,192.793976 347.121490,192.821304   C297.166321,193.166885 247.206848,192.883057 197.251266,193.200150   C187.095413,193.264603 179.799591,183.768982 179.911057,175.984421   C179.994537,170.153793 179.826035,164.389221 184.579254,159.560074  z"/>
<path fill="#2677ff" opacity="1.000000" stroke="none" d=" M211.196899,396.569092   C253.430405,396.600616 295.663910,396.632111 338.789276,396.755432   C343.064484,397.449036 346.515625,397.801178 349.818695,398.698547   C360.629639,401.635468 365.908600,412.583954 361.464508,423.072968   C360.012115,426.500946 357.754608,429.587769 355.865265,432.830597   C355.865265,432.830597 355.934448,432.981567 355.483307,432.946014   C349.797882,433.592377 344.567932,434.822144 339.328583,434.863586   C313.383301,435.068726 287.435516,434.961975 261.488617,434.961304   C241.030472,434.960754 220.572327,434.937531 200.114212,434.958405   C190.426590,434.968292 183.290375,430.672211 181.780945,420.723602   C181.632812,419.747314 180.563110,418.910858 179.921173,418.009491   C179.926849,416.937714 179.932526,415.865906 180.242523,414.195251   C181.025436,412.249146 181.317581,410.794434 182.019806,409.576111   C183.695160,406.669586 184.930756,402.515045 187.489273,401.323273   C192.503769,398.987427 198.270950,398.194122 203.784088,397.036041   C206.181900,396.532288 208.721634,396.704102 211.196899,396.569092  z"/>
<path fill="#2677ff" opacity="1.000000" stroke="none" d=" M435.380249,97.683212   C434.467712,97.106499 433.347076,96.282227 433.224518,95.329582   C432.390198,88.842773 431.739471,82.331627 431.081146,75.823112   C430.355377,68.648071 429.852905,61.443012 428.816284,54.314571   C428.653381,53.194248 426.195984,51.624928 424.768921,51.592041   C410.306061,51.258728 395.835999,51.039959 381.369476,51.108616   C363.736420,51.192295 346.104523,51.761494 328.472778,51.732342   C323.141968,51.723530 318.166534,51.026592 313.342682,54.570766   C303.798157,61.583290 297.130066,76.837852 306.645325,89.015594   C311.662231,95.436325 317.672821,99.217064 326.013214,99.174698   C343.670685,99.084991 361.329041,99.152573 378.987000,99.184311   C384.402069,99.194046 385.406128,100.491676 385.898712,105.874504   C386.712463,114.767471 388.385223,123.603577 388.806976,132.505753   C389.498291,147.099182 389.477173,161.726349 389.507751,176.663544   C388.874634,175.790024 388.195190,174.602875 388.151550,173.392792   C387.714325,161.275803 387.774384,149.126678 386.901672,137.043854   C386.131622,126.382767 384.467468,115.776863 382.833008,105.203026   C382.680115,104.214027 379.909271,102.976715 378.342255,102.960182   C362.519440,102.793259 346.693878,102.917625 330.869781,102.831177   C322.552490,102.785744 314.698975,100.832764 308.172241,95.429306   C299.517059,88.263718 297.116486,75.496902 301.901581,64.379944   C306.358856,54.024586 313.919189,48.892746 325.417084,48.958538   C358.564301,49.148209 391.713501,49.087173 424.861237,48.952869   C428.734070,48.937176 430.738037,49.951374 431.193604,53.991627   C432.305145,63.849327 433.745239,73.670105 434.845184,83.528931   C435.357056,88.116928 435.386078,92.758804 435.380249,97.683212  z"/>
<path fill="#2677ff" opacity="1.000000" stroke="none" d=" M872.946106,133.588165   C864.970886,133.667313 856.941040,133.065552 848.910889,133.062302   C714.262695,133.007812 579.614563,133.028244 444.966370,133.029236   C443.300232,133.029251 441.538422,133.317307 440.000061,132.864029   C438.889923,132.536926 437.344025,131.274734 437.246094,130.303238   C436.356476,121.476151 435.742615,112.621269 435.148560,103.304825   C436.460052,108.002861 437.957367,113.122887 438.828003,118.347343   C441.348053,133.469406 438.198395,130.924973 452.234650,130.931381   C588.869080,130.993774 725.503601,130.970413 862.138062,130.978394   C864.803528,130.978546 867.490723,130.882004 870.123169,131.200119   C871.111450,131.319534 871.972351,132.492889 872.946106,133.588165  z"/>
<path fill="#2677ff" opacity="1.000000" stroke="none" d=" M451.287170,416.855652   C452.579590,416.207428 454.339600,415.232544 456.110321,415.212616   C470.432312,415.051178 484.756470,415.099640 499.079681,415.027008   C561.343750,414.711395 623.607605,414.374084 685.871643,414.059906   C687.693848,414.050720 689.516907,414.210999 691.665527,414.538879   C687.824524,415.469360 683.675110,416.570374 679.486755,416.746826   C671.745728,417.072876 663.981812,416.862366 656.227478,416.866455   C588.071594,416.902588 519.915649,416.936768 451.287170,416.855652  z"/>
<path fill="#2677ff" opacity="1.000000" stroke="none" d=" M179.660950,418.282776   C180.563110,418.910858 181.632812,419.747314 181.780945,420.723602   C183.290375,430.672211 190.426590,434.968292 200.114212,434.958405   C220.572327,434.937531 241.030472,434.960754 261.488617,434.961304   C287.435516,434.961975 313.383301,435.068726 339.328583,434.863586   C344.567932,434.822144 349.797882,433.592377 355.433655,432.879456   C353.151001,434.219604 350.503876,436.683105 347.776367,436.775574   C334.988159,437.209106 322.177826,437.004242 309.375397,437.001953   C271.466553,436.995148 233.557617,437.009796 195.648865,436.938477   C186.268219,436.920837 178.496826,427.981781 179.660950,418.282776  z"/>
<path fill="#2677ff" opacity="1.000000" stroke="none" d=" M723.280029,414.849854   C724.562683,414.190918 726.313477,413.200409 728.074402,413.182159   C743.566772,413.021362 759.062073,413.130920 774.554321,412.962219   C785.856812,412.839142 797.157227,412.458191 808.456177,412.113220   C815.633606,411.894073 821.609192,405.969940 823.120789,398.752441   C826.008362,384.964661 829.294800,371.259918 832.493469,357.538910   C832.700439,356.651276 833.569946,355.918152 834.461426,354.977844   C833.866211,360.468842 833.112061,366.130188 831.973083,371.713013   C830.442383,379.215668 828.951599,386.756439 826.802795,394.093170   C825.213745,399.518890 823.393616,405.217682 820.155762,409.695190   C818.133423,412.491730 813.305786,414.642120 809.702515,414.694275   C781.057312,415.109070 752.403809,414.951202 723.280029,414.849854  z"/>
<path fill="#2677ff" opacity="1.000000" stroke="none" d=" M835.305908,352.922180   C835.489319,349.048553 835.714905,345.028076 836.636414,341.173950   C840.749695,323.971619 845.150879,306.838135 849.272827,289.637787   C852.397217,276.600525 855.196045,263.485565 858.256897,250.432648   C860.168762,242.279373 862.279053,234.172165 864.377502,226.064255   C864.505371,225.569809 865.313049,225.251251 866.150269,224.754166   C866.228821,227.229340 866.224609,229.861877 865.647461,232.362167   C863.505554,241.640823 861.199463,250.881973 858.908447,260.125671   C856.617310,269.370270 854.163696,278.575928 851.980835,287.845642   C850.143799,295.646545 848.620117,303.520813 846.900635,311.350098   C846.337708,313.913422 845.576904,316.432739 844.938171,318.980133   C842.269287,329.625092 839.626831,340.276733 836.918945,350.911743   C836.738892,351.618774 836.096008,352.207947 835.305908,352.922180  z"/>
<path fill="#2677ff" opacity="1.000000" stroke="none" d=" M866.955566,222.797577   C867.291748,217.667679 867.567322,212.283432 868.728760,207.097549   C871.283020,195.692017 874.327820,184.397125 877.083618,173.035553   C878.246094,168.243164 879.137695,163.385284 880.280518,158.587662   C880.433289,157.946381 881.341309,157.485031 882.251221,156.830231   C882.066040,160.222763 881.739563,163.773422 880.953308,167.219162   C878.508179,177.934998 875.857361,188.603714 873.348389,199.305267   C871.807800,205.876007 870.419800,212.482605 868.868164,219.050659   C868.573242,220.298935 867.832092,221.441742 866.955566,222.797577  z"/>
<path fill="#2677ff" opacity="1.000000" stroke="none" d=" M440.725983,432.682251   C438.186310,434.056366 435.460754,435.519287 432.552307,436.195435   C416.973938,439.816986 405.412964,449.057617 396.136810,461.646759   C395.487183,462.528473 394.527039,463.181396 393.365906,463.979126   C394.858612,460.670288 396.140717,456.820221 398.632721,454.064178   C408.507019,443.143799 420.834076,436.068665 435.122192,432.517578   C436.805145,432.099274 438.673340,432.426392 440.725983,432.682251  z"/>
<path fill="#2677ff" opacity="1.000000" stroke="none" d=" M356.241638,432.897766   C357.754608,429.587769 360.012115,426.500946 361.464508,423.072968   C365.908600,412.583954 360.629639,401.635468 349.818695,398.698547   C346.515625,397.801178 343.064484,397.449036 339.241302,396.706787   C340.091980,396.074249 341.361603,395.221161 342.676208,395.145081   C358.705414,394.217224 367.285004,406.212097 364.475220,421.121521   C363.499878,426.297180 362.427979,431.126404 356.241638,432.897766  z"/>
<path fill="#2677ff" opacity="1.000000" stroke="none" d=" M211.006287,396.239288   C208.721634,396.704102 206.181900,396.532288 203.784088,397.036041   C198.270950,398.194122 192.503769,398.987427 187.489273,401.323273   C184.930756,402.515045 183.695160,406.669586 182.019806,409.576111   C181.317581,410.794434 181.025436,412.249146 180.227921,413.793579   C178.244171,407.405182 182.402954,398.789490 189.878082,396.983978   C196.554291,395.371399 203.813629,396.173096 211.006287,396.239288  z"/>
<path fill="#2677ff" opacity="1.000000" stroke="none" d=" M389.160950,400.254791   C390.075989,400.539886 391.535095,401.224701 391.600159,402.023132   C392.166992,408.977753 397.007172,412.146271 402.474182,414.870056   C403.034943,415.149445 403.464722,415.691742 404.077454,416.419098   C395.377441,417.349243 388.973114,410.573547 389.160950,400.254791  z"/>
<path fill="#2677ff" opacity="1.000000" stroke="none" d=" M491.993011,448.608826   C489.572601,447.609924 487.053223,446.356293 484.649109,444.910950   C480.758911,442.572144 476.944458,440.107391 473.045227,437.351868   C480.383118,438.955322 487.494293,441.373230 491.993011,448.608826  z"/>
<path fill="#2677ff" opacity="1.000000" stroke="none" d=" M882.621826,142.951141   C879.654724,140.512222 876.804871,137.703796 873.905518,134.549469   C877.226135,132.634079 878.904358,135.132828 880.425415,137.246490   C881.531677,138.783737 881.991211,140.786453 882.621826,142.951141  z"/>
<path fill="#2677ff" opacity="1.000000" stroke="none" d=" M392.662659,464.067993   C391.258789,467.981079 389.499146,471.942932 387.398315,475.975586   C388.807007,472.069855 390.556946,468.093323 392.662659,464.067993  z"/>
<path fill="#2677ff" opacity="1.000000" stroke="none" d=" M883.026123,154.739380   C882.548889,151.884644 882.403748,148.786362 882.455994,145.358337   C882.888367,148.184341 883.123352,151.340103 883.026123,154.739380  z"/>
<path fill="#2677ff" opacity="1.000000" stroke="none" d=" M464.970276,434.590546   C462.817841,434.504730 460.588318,434.073364 458.180481,433.305328   C460.299133,433.394104 462.596161,433.819550 464.970276,434.590546  z"/>
<path fill="#2677ff" opacity="1.000000" stroke="none" d=" M470.990845,436.617493   C469.741791,436.529602 468.435089,436.123322 467.064697,435.356140   C468.311737,435.429871 469.622467,435.864502 470.990845,436.617493  z"/>
<path fill="#2677ff" opacity="1.000000" stroke="none" d=" M699.221802,415.068298   C700.500305,414.627899 701.995850,414.477325 703.741577,414.552307   C702.474121,414.971283 700.956421,415.164673 699.221802,415.068298  z"/>
</svg>