<svg width="38" height="27" viewBox="0 0 38 27" fill="none" xmlns="http://www.w3.org/2000/svg">
<path fill-rule="evenodd" clip-rule="evenodd" d="M37.6594 10.2812L35.4719 4.8125C35.0922 3.86573 34.1732 3.24649 33.1531 3.25H27.75V2C27.75 1.30964 27.1904 0.75 26.5 0.75H2.75C1.36929 0.75 0.25 1.86929 0.25 3.25V20.75C0.25 22.1307 1.36929 23.25 2.75 23.25H5.40625C5.97271 25.4624 7.96624 27.0098 10.25 27.0098C12.5338 27.0098 14.5273 25.4624 15.0938 23.25H22.9062C23.4727 25.4624 25.4662 27.0098 27.75 27.0098C30.0338 27.0098 32.0273 25.4624 32.5938 23.25H35.25C36.6307 23.25 37.75 22.1307 37.75 20.75V10.75C37.7504 10.5894 37.7196 10.4302 37.6594 10.2812ZM27.75 5.75H33.1531L34.6531 9.5H27.75V5.75ZM2.75 3.25H25.25V13.25H2.75V3.25ZM10.25 24.5C8.86929 24.5 7.75 23.3807 7.75 22C7.75 20.6193 8.86929 19.5 10.25 19.5C11.6307 19.5 12.75 20.6193 12.75 22C12.75 23.3807 11.6307 24.5 10.25 24.5ZM22.9062 20.75H15.0938C14.5273 18.5376 12.5338 16.9902 10.25 16.9902C7.96624 16.9902 5.97271 18.5376 5.40625 20.75H2.75V15.75H25.25V17.6734C24.089 18.3445 23.2449 19.4525 22.9062 20.75ZM27.75 24.5C26.3693 24.5 25.25 23.3807 25.25 22C25.25 20.6193 26.3693 19.5 27.75 19.5C29.1307 19.5 30.25 20.6193 30.25 22C30.25 23.3807 29.1307 24.5 27.75 24.5ZM35.25 20.75H32.5938C32.0206 18.5434 30.0298 17.0022 27.75 17V12H35.25V20.75Z" fill="#121417"/>
</svg>
