<svg width="38" height="29" viewBox="0 0 38 29" fill="none" xmlns="http://www.w3.org/2000/svg">
<path fill-rule="evenodd" clip-rule="evenodd" d="M37.25 16.5C36.6977 16.9142 35.9142 16.8023 35.5 16.25C33.9721 14.1963 31.5597 12.9901 29 13C28.4975 13 28.0438 12.699 27.8484 12.2359C27.7173 11.9252 27.7173 11.5748 27.8484 11.2641C28.0438 10.801 28.4975 10.5 29 10.5C30.9487 10.4998 32.5726 9.00709 32.7364 7.06526C32.9002 5.12343 31.5494 3.37973 29.6283 3.05306C27.7071 2.7264 25.8559 3.92565 25.3687 5.8125C25.1962 6.48128 24.5141 6.88353 23.8453 6.71094C23.1765 6.53835 22.7743 5.85628 22.9469 5.1875C23.6144 2.60443 25.8481 0.729897 28.5078 0.520609C31.1675 0.311322 33.6668 1.81342 34.7302 4.2603C35.7935 6.70717 35.1864 9.55925 33.2188 11.3609C34.9185 12.0969 36.396 13.2647 37.5047 14.7484C37.7036 15.0143 37.7885 15.3484 37.7407 15.6771C37.693 16.0057 37.5164 16.3018 37.25 16.5ZM28.8312 26.125C29.0776 26.5125 29.0916 27.0038 28.8679 27.4048C28.6441 27.8057 28.2185 28.0517 27.7594 28.0455C27.3003 28.0393 26.8816 27.7818 26.6687 27.375C25.0667 24.6622 22.1505 22.9977 19 22.9977C15.8495 22.9977 12.9333 24.6622 11.3312 27.375C11.1184 27.7818 10.6997 28.0393 10.2406 28.0455C9.78145 28.0517 9.35589 27.8057 9.13213 27.4048C8.90837 27.0038 8.92243 26.5125 9.16875 26.125C10.3806 24.0428 12.2284 22.4042 14.4406 21.45C11.8883 19.4958 10.8651 16.1325 11.8967 13.088C12.9284 10.0435 15.7855 7.99499 19 7.99499C22.2145 7.99499 25.0716 10.0435 26.1033 13.088C27.1349 16.1325 26.1117 19.4958 23.5594 21.45C25.7716 22.4042 27.6194 24.0428 28.8312 26.125ZM19 20.5C21.7614 20.5 24 18.2614 24 15.5C24 12.7386 21.7614 10.5 19 10.5C16.2386 10.5 14 12.7386 14 15.5C14 18.2614 16.2386 20.5 19 20.5ZM10.25 11.75C10.25 11.0596 9.69036 10.5 9 10.5C7.05127 10.4998 5.42743 9.00709 5.2636 7.06526C5.09978 5.12343 6.45057 3.37973 8.37172 3.05306C10.2929 2.7264 12.1441 3.92565 12.6312 5.8125C12.8038 6.48128 13.4859 6.88353 14.1547 6.71094C14.8235 6.53835 15.2257 5.85628 15.0531 5.1875C14.3856 2.60443 12.1519 0.729897 9.49222 0.520609C6.8325 0.311322 4.33318 1.81342 3.26982 4.2603C2.20646 6.70717 2.81355 9.55925 4.78125 11.3609C3.08325 12.0976 1.60737 13.2653 0.5 14.7484C0.0853549 15.3007 0.196934 16.0846 0.749219 16.4992C1.3015 16.9139 2.08535 16.8023 2.5 16.25C4.0279 14.1963 6.44026 12.9901 9 13C9.69036 13 10.25 12.4404 10.25 11.75Z" fill="#121417"/>
</svg>
