<svg width="34" height="36" viewBox="0 0 34 36" fill="none" xmlns="http://www.w3.org/2000/svg">
<path fill-rule="evenodd" clip-rule="evenodd" d="M31.95 8.33594L18.2 0.8125C17.4532 0.399865 16.5468 0.399865 15.8 0.8125L2.05 8.33906C1.25023 8.77666 0.752069 9.61491 0.75 10.5266V25.4703C0.752069 26.382 1.25023 27.2202 2.05 27.6578L15.8 35.1844C16.5468 35.597 17.4532 35.597 18.2 35.1844L31.95 27.6578C32.7498 27.2202 33.2479 26.382 33.25 25.4703V10.5281C33.2496 9.61479 32.7512 8.77434 31.95 8.33594ZM17 3L29.5531 9.875L17 16.75L4.44687 9.875L17 3ZM3.25 12.0625L15.75 18.9031V32.3078L3.25 25.4719V12.0625ZM18.25 32.3078V18.9094L30.75 12.0625V25.4656L18.25 32.3078Z" fill="#121417"/>
</svg>
