<svg width="34" height="33" viewBox="0 0 34 33" fill="none" xmlns="http://www.w3.org/2000/svg">
<path fill-rule="evenodd" clip-rule="evenodd" d="M33.0812 30.125C30.7016 26.0109 27.0344 23.0609 22.7547 21.6625C27.1059 19.0722 29.1902 13.8939 27.847 9.01147C26.5037 4.129 22.0639 0.745728 17 0.745728C11.9361 0.745728 7.49631 4.129 6.15303 9.01147C4.80974 13.8939 6.89408 19.0722 11.2453 21.6625C6.96562 23.0594 3.29843 26.0094 0.918746 30.125C0.681168 30.5124 0.672541 30.9982 0.896215 31.3937C1.11989 31.7893 1.54062 32.0323 1.99504 32.0284C2.44945 32.0245 2.86595 31.7743 3.08281 31.375C6.02656 26.2875 11.2297 23.25 17 23.25C22.7703 23.25 27.9734 26.2875 30.9172 31.375C31.134 31.7743 31.5505 32.0245 32.005 32.0284C32.4594 32.0323 32.8801 31.7893 33.1038 31.3937C33.3275 30.9982 33.3188 30.5124 33.0812 30.125ZM8.25 12C8.25 7.16749 12.1675 3.24998 17 3.24998C21.8325 3.24998 25.75 7.16749 25.75 12C25.75 16.8325 21.8325 20.75 17 20.75C12.1696 20.7448 8.25516 16.8303 8.25 12Z" fill="#121417"/>
</svg>
