<svg width="34" height="34" viewBox="0 0 34 34" fill="none" xmlns="http://www.w3.org/2000/svg">
<path fill-rule="evenodd" clip-rule="evenodd" d="M17 0.75C11.2933 0.748755 6.00414 3.7411 3.06589 8.63328C0.127645 13.5255 -0.0290349 19.6004 2.65312 24.6375L0.879687 29.9578C0.580075 30.8562 0.813847 31.8468 1.48352 32.5165C2.15319 33.1861 3.14377 33.4199 4.04219 33.1203L9.3625 31.3469C15.3323 34.5221 22.6445 33.6688 27.7227 29.2042C32.8009 24.7397 34.5839 17.5971 32.1995 11.2697C29.8151 4.94238 23.7617 0.752773 17 0.75ZM17 30.75C14.5828 30.7516 12.208 30.1151 10.1156 28.9047C9.80574 28.725 9.43364 28.6869 9.09375 28.8L3.25 30.75L5.19844 24.9062C5.31205 24.5666 5.2745 24.1945 5.09531 23.8844C1.97901 18.4966 2.87055 11.6873 7.26889 7.28342C11.6672 2.87953 18.4753 1.97938 23.8671 5.08888C29.2588 8.19838 31.8894 14.542 30.2804 20.5545C28.6714 26.5671 23.2241 30.749 17 30.75Z" fill="#121417"/>
</svg>
