<svg width="28" height="34" viewBox="0 0 28 34" fill="none" xmlns="http://www.w3.org/2000/svg">
<path fill-rule="evenodd" clip-rule="evenodd" d="M27.3844 9.86563L18.6344 1.11562C18.3998 0.881264 18.0816 0.749739 17.75 0.75H2.75C1.36929 0.75 0.25 1.86929 0.25 3.25V30.75C0.25 32.1307 1.36929 33.25 2.75 33.25H25.25C26.6307 33.25 27.75 32.1307 27.75 30.75V10.75C27.7503 10.4184 27.6187 10.1002 27.3844 9.86563ZM19 5.01719L23.4828 9.5H19V5.01719ZM25.25 30.75H2.75V3.25H16.5V10.75C16.5 11.4404 17.0596 12 17.75 12H25.25V30.75ZM20.25 18.25C20.25 18.9404 19.6904 19.5 19 19.5H9C8.30964 19.5 7.75 18.9404 7.75 18.25C7.75 17.5596 8.30964 17 9 17H19C19.6904 17 20.25 17.5596 20.25 18.25ZM20.25 23.25C20.25 23.9404 19.6904 24.5 19 24.5H9C8.30964 24.5 7.75 23.9404 7.75 23.25C7.75 22.5596 8.30964 22 9 22H19C19.6904 22 20.25 22.5596 20.25 23.25Z" fill="#121417"/>
</svg>
